<svg width="22" height="21" viewBox="0 0 22 21" fill="none" xmlns="http://www.w3.org/2000/svg">
<path d="M0.335938 0.999999C0.335938 0.447714 0.783653 0 1.33594 0H9.13355C9.68583 0 10.1335 0.447715 10.1335 1V8.81441C10.1335 9.3667 9.68583 9.81441 9.13355 9.81441H1.33594C0.783653 9.81441 0.335938 9.3667 0.335938 8.81441V0.999999Z" fill="#FD9340"/>
<path d="M11.3477 0.999999C11.3477 0.447714 11.7954 0 12.3477 0H20.1453C20.6975 0 21.1453 0.447715 21.1453 1V8.81441C21.1453 9.3667 20.6975 9.81441 20.1453 9.81441H12.3477C11.7954 9.81441 11.3477 9.3667 11.3477 8.81441V0.999999Z" fill="#FD9340"/>
<path d="M0.335938 12.0449C0.335938 11.4926 0.783653 11.0449 1.33594 11.0449H9.13355C9.68583 11.0449 10.1335 11.4926 10.1335 12.0449V19.8593C10.1335 20.4116 9.68583 20.8593 9.13355 20.8593H1.33594C0.783653 20.8593 0.335938 20.4116 0.335938 19.8593V12.0449Z" fill="#FD9340"/>
<path d="M11.3477 12.0449C11.3477 11.4926 11.7954 11.0449 12.3477 11.0449H20.1453C20.6975 11.0449 21.1453 11.4926 21.1453 12.0449V19.8593C21.1453 20.4116 20.6975 20.8593 20.1453 20.8593H12.3477C11.7954 20.8593 11.3477 20.4116 11.3477 19.8593V12.0449Z" fill="#FD9340"/>
</svg>
