<svg width="16" height="19" viewBox="0 0 16 19" fill="none" xmlns="http://www.w3.org/2000/svg">
<path d="M15.2253 6.25431L6.4389 17.6168C6.03566 18.1328 5.44141 18.423 4.80472 18.4337L1.30289 18.4767C1.11189 18.4767 0.952713 18.3477 0.910267 18.165L0.114398 14.7143C-0.023552 14.0801 0.114398 13.4244 0.517638 12.9191L6.74663 4.85684C6.85275 4.72784 7.04376 4.70742 7.1711 4.80309L9.79216 6.88854C9.96194 7.02829 10.1954 7.10353 10.4395 7.07129C10.9594 7.00679 11.3096 6.5338 11.2566 6.02856C11.2247 5.77057 11.0974 5.55557 10.9276 5.39433C10.8745 5.35133 8.38082 3.35188 8.38082 3.35188C8.22164 3.22288 8.18981 2.98639 8.31715 2.82622L9.30402 1.54592C10.2166 0.374204 11.8084 0.266707 13.0924 1.28793L14.5674 2.45965C15.1722 2.93264 15.5755 3.55612 15.7134 4.21186C15.8726 4.93316 15.7028 5.64157 15.2253 6.25431Z" fill="#FD9340"/>
</svg>
